{
  "accessors": [
    {
      "bufferView": 2,
      "componentType": 5126,
      "count": 490,
      "max": [
        1.326390027999878,
        -0.031005319207906723,
        3.8205018043518066
      ],
      "min": [
        -0.7403295636177063,
        -1.6237736940383911,
        2.4330015182495117
      ],
      "type": "VEC3"
    },
    {
      "bufferView": 2,
      "byteOffset": 5880,
      "componentType": 5126,
      "count": 490,
      "max": [
        0.9136614203453064,
        0.9979340434074402,
        0.9993035197257996
      ],
      "min": [
        -0.9998334050178528,
        -0.9950597286224365,
        -0.9998680353164673
      ],
      "type": "VEC3"
    },
    {
      "bufferView": 1,
      "componentType": 5126,
      "count": 490,
      "max": [
        0.9964781999588013,
        0.8458463549613953
      ],
      "min": [
        0.003741726279258728,
        0.003384210169315338
      ],
      "type": "VEC2"
    },
    {
      "bufferView": 0,
      "componentType": 5125,
      "count": 2304,
      "type": "SCALAR"
    },
    {
      "bufferView": 2,
      "byteOffset": 11760,
      "componentType": 5126,
      "count": 1857,
      "max": [
        1.092588186264038,
        1.1291518211364746,
        4.336381435394287
      ],
      "min": [
        -1.1174795627593994,
        -1.0334316492080688,
        0.14235591888427734
      ],
      "type": "VEC3"
    },
    {
      "bufferView": 2,
      "byteOffset": 34044,
      "componentType": 5126,
      "count": 1857,
      "max": [
        0.9992485642433167,
        0.9999833106994629,
        0.999998927116394
      ],
      "min": [
        -0.9984785318374634,
        -0.999976634979248,
        -0.999983549118042
      ],
      "type": "VEC3"
    },
    {
      "bufferView": 1,
      "byteOffset": 3920,
      "componentType": 5126,
      "count": 1857,
      "max": [
        0.9999986290931702,
        0.75560462474823
      ],
      "min": [
        2.384185791015625e-07,
        0.0003927648067474365
      ],
      "type": "VEC2"
    },
    {
      "bufferView": 0,
      "byteOffset": 9216,
      "componentType": 5125,
      "count": 10416,
      "type": "SCALAR"
    },
    {
      "bufferView": 2,
      "byteOffset": 56328,
      "componentType": 5126,
      "count": 1847,
      "max": [
        1.2415786981582642,
        1.25216543674469,
        4.491484642028809
      ],
      "min": [
        -1.2663832902908325,
        -1.1527795791625977,
        -0.012747049331665039
      ],
      "type": "VEC3"
    },
    {
      "bufferView": 2,
      "byteOffset": 78492,
      "componentType": 5126,
      "count": 1847,
      "max": [
        0.9984803199768066,
        0.9999800324440002,
        0.999998927116394
      ],
      "min": [
        -0.9992261528968811,
        -0.9999849796295166,
        -0.99993497133255
      ],
      "type": "VEC3"
    },
    {
      "bufferView": 1,
      "byteOffset": 18776,
      "componentType": 5126,
      "count": 1847,
      "max": [
        0.9999986290931702,
        0.75560462474823
      ],
      "min": [
        2.384185791015625e-07,
        2.384185791015625e-07
      ],
      "type": "VEC2"
    },
    {
      "bufferView": 0,
      "byteOffset": 50880,
      "componentType": 5125,
      "count": 10416,
      "type": "SCALAR"
    },
    {
      "bufferView": 2,
      "byteOffset": 100656,
      "componentType": 5126,
      "count": 387,
      "max": [
        1.1703308820724487,
        -0.16353139281272888,
        3.657351016998291
      ],
      "min": [
        -0.5684621334075928,
        -1.4856147766113281,
        2.5777087211608887
      ],
      "type": "VEC3"
    },
    {
      "bufferView": 2,
      "byteOffset": 105300,
      "componentType": 5126,
      "count": 387,
      "max": [
        0.999865710735321,
        0.35452181100845337,
        0.9997743964195251
      ],
      "min": [
        -0.8794431090354919,
        -0.9981699585914612,
        -0.9974911212921143
      ],
      "type": "VEC3"
    },
    {
      "bufferView": 1,
      "byteOffset": 33552,
      "componentType": 5126,
      "count": 387,
      "max": [
        0.7106539011001587,
        0.9574761390686035
      ],
      "min": [
        0.332160085439682,
        0.7153213024139404
      ],
      "type": "VEC2"
    },
    {
      "bufferView": 0,
      "byteOffset": 92544,
      "componentType": 5125,
      "count": 2064,
      "type": "SCALAR"
    },
    {
      "bufferView": 2,
      "byteOffset": 109944,
      "componentType": 5126,
      "count": 513,
      "max": [
        0.30963799357414246,
        1.9602787494659424,
        3.382514238357544
      ],
      "min": [
        -1.5084813833236694,
        0.7394425868988037,
        1.3738734722137451
      ],
      "type": "VEC3"
    },
    {
      "bufferView": 2,
      "byteOffset": 116100,
      "componentType": 5126,
      "count": 513,
      "max": [
        0.9980694055557251,
        0.9981971979141235,
        0.999998927116394
      ],
      "min": [
        -0.9921476244926453,
        -0.9835474491119385,
        -0.9999988079071045
      ],
      "type": "VEC3"
    },
    {
      "bufferView": 1,
      "byteOffset": 36648,
      "componentType": 5126,
      "count": 513,
      "max": [
        0.9999986290931702,
        0.9719253778457642
      ],
      "min": [
        2.384185791015625e-07,
        2.086162567138672e-07
      ],
      "type": "VEC2"
    },
    {
      "bufferView": 0,
      "byteOffset": 100800,
      "componentType": 5125,
      "count": 2880,
      "type": "SCALAR"
    },
    {
      "bufferView": 2,
      "byteOffset": 122256,
      "componentType": 5126,
      "count": 513,
      "max": [
        0.3874729573726654,
        2.0381224155426025,
        3.5044164657592773
      ],
      "min": [
        -1.585854172706604,
        0.6627399325370789,
        1.2519712448120117
      ],
      "type": "VEC3"
    },
    {
      "bufferView": 2,
      "byteOffset": 128412,
      "componentType": 5126,
      "count": 513,
      "max": [
        0.9922857284545898,
        0.9851921796798706,
        0.9999986290931702
      ],
      "min": [
        -0.9984919428825378,
        -0.9983229637145996,
        -0.9999988079071045
      ],
      "type": "VEC3"
    },
    {
      "bufferView": 1,
      "byteOffset": 40752,
      "componentType": 5126,
      "count": 513,
      "max": [
        0.9999986290931702,
        0.9719253778457642
      ],
      "min": [
        2.384185791015625e-07,
        2.086162567138672e-07
      ],
      "type": "VEC2"
    },
    {
      "bufferView": 0,
      "byteOffset": 112320,
      "componentType": 5125,
      "count": 2880,
      "type": "SCALAR"
    },
    {
      "bufferView": 2,
      "byteOffset": 134568,
      "componentType": 5126,
      "count": 541,
      "max": [
        1.0912659168243408,
        1.264379858970642,
        2.9542815685272217
      ],
      "min": [
        -1.0912659168243408,
        -0.9937006235122681,
        1.292496919631958
      ],
      "type": "VEC3"
    },
    {
      "bufferView": 2,
      "byteOffset": 141060,
      "componentType": 5126,
      "count": 541,
      "max": [
        0.9999923706054688,
        0.9927296042442322,
        0.9959189891815186
      ],
      "min": [
        -0.9999923706054688,
        -0.997288703918457,
        -0.9965384006500244
      ],
      "type": "VEC3"
    },
    {
      "bufferView": 1,
      "byteOffset": 44856,
      "componentType": 5126,
      "count": 541,
      "max": [
        0.0,
        0.0
      ],
      "min": [
        0.0,
        0.0
      ],
      "type": "VEC2"
    },
    {
      "bufferView": 0,
      "byteOffset": 123840,
      "componentType": 5125,
      "count": 3144,
      "type": "SCALAR"
    }
  ],
  "asset": {
    "extras": {
      "author": "Mr Peterson (https://sketchfab.com/peterson9137)",
      "license": "CC-BY-4.0 (http://creativecommons.org/licenses/by/4.0/)",
      "source": "https://sketchfab.com/3d-models/player-gametoons-541ebdb87dda4bd7a26a66860750baea",
      "title": "Player Gametoons"
    },
    "generator": "Sketchfab-12.79.0",
    "version": "2.0"
  },
  "bufferViews": [
    {
      "buffer": 0,
      "byteLength": 136416,
      "name": "floatBufferViews",
      "target": 34963
    },
    {
      "buffer": 0,
      "byteLength": 49184,
      "byteOffset": 136416,
      "byteStride": 8,
      "name": "floatBufferViews",
      "target": 34962
    },
    {
      "buffer": 0,
      "byteLength": 147552,
      "byteOffset": 185600,
      "byteStride": 12,
      "name": "floatBufferViews",
      "target": 34962
    }
  ],
  "buffers": [
    {
      "byteLength": 333152,
      "uri": "scene.bin"
    }
  ],
  "images": [
    {
      "uri": "textures/Astronaut.002_baseColoryellow.png"
    },
    {
      "uri": "textures/Astronaut_backpack_baseColoryellow.png"
    },
    {
      "uri": "textures/beanie_baseColoryellow.png"
    }
  ],
  "materials": [
    {
      "name": "Outline.002",
      "pbrMetallicRoughness": {
        "baseColorFactor": [
          0.0,
          0.0,
          0.0,
          1.0
        ],
        "metallicFactor": 0.0,
        "roughnessFactor": 0.8040408205773457
      }
    },
    {
      "doubleSided": true,
      "name": "Astronaut.002",
      "pbrMetallicRoughness": {
        "baseColorTexture": {
          "index": 0
        },
        "metallicFactor": 0.0,
        "roughnessFactor": 0.8308205978495098
      }
    },
    {
      "doubleSided": true,
      "name": "Astronaut_backpack",
      "pbrMetallicRoughness": {
        "baseColorTexture": {
          "index": 1
        },
        "metallicFactor": 0.0,
        "roughnessFactor": 0.8308205978495098
      }
    },
    {
      "doubleSided": true,
      "name": "beanie",
      "pbrMetallicRoughness": {
        "baseColorTexture": {
          "index": 2
        },
        "metallicFactor": 0.0,
        "roughnessFactor": 0.9979271447552229
      }
    }
  ],
  "meshes": [
    {
      "name": "Astronaut_Outline.002_0",
      "primitives": [
        {
          "attributes": {
            "NORMAL": 1,
            "POSITION": 0,
            "TEXCOORD_0": 2
          },
          "indices": 3,
          "material": 0,
          "mode": 4
        }
      ]
    },
    {
      "name": "Astronaut.001_Astronaut.002_0",
      "primitives": [
        {
          "attributes": {
            "NORMAL": 5,
            "POSITION": 4,
            "TEXCOORD_0": 6
          },
          "indices": 7,
          "material": 1,
          "mode": 4
        }
      ]
    },
    {
      "name": "Astronaut.001_Outline.002_0",
      "primitives": [
        {
          "attributes": {
            "NORMAL": 9,
            "POSITION": 8,
            "TEXCOORD_0": 10
          },
          "indices": 11,
          "material": 0,
          "mode": 4
        }
      ]
    },
    {
      "name": "Astronaut.002_Astronaut.002_0",
      "primitives": [
        {
          "attributes": {
            "NORMAL": 13,
            "POSITION": 12,
            "TEXCOORD_0": 14
          },
          "indices": 15,
          "material": 1,
          "mode": 4
        }
      ]
    },
    {
      "name": "Astronaut.003_Astronaut_backpack_0",
      "primitives": [
        {
          "attributes": {
            "NORMAL": 17,
            "POSITION": 16,
            "TEXCOORD_0": 18
          },
          "indices": 19,
          "material": 2,
          "mode": 4
        }
      ]
    },
    {
      "name": "Astronaut.004_Outline.002_0",
      "primitives": [
        {
          "attributes": {
            "NORMAL": 21,
            "POSITION": 20,
            "TEXCOORD_0": 22
          },
          "indices": 23,
          "material": 0,
          "mode": 4
        }
      ]
    },
    {
      "name": "beanie_beanie_0",
      "primitives": [
        {
          "attributes": {
            "NORMAL": 25,
            "POSITION": 24,
            "TEXCOORD_0": 26
          },
          "indices": 27,
          "material": 3,
          "mode": 4
        }
      ]
    }
  ],
  "nodes": [
    {
      "children": [
        1
      ],
      "matrix": [
        1.0,
        0.0,
        0.0,
        0.0,
        0.0,
        2.220446049250313e-16,
        -1.0,
        0.0,
        0.0,
        1.0,
        2.220446049250313e-16,
        0.0,
        0.0,
        0.0,
        0.0,
        1.0
      ],
      "name": "Sketchfab_model"
    },
    {
      "children": [
        2
      ],
      "matrix": [
        0.009999999776482582,
        0.0,
        0.0,
        0.0,
        0.0,
        0.0,
        0.009999999776482582,
        0.0,
        0.0,
        -0.009999999776482582,
        0.0,
        0.0,
        0.0,
        0.0,
        0.0,
        1.0
      ],
      "name": "4532b3841f2443c8aad9ed6dc8ba1d04.fbx"
    },
    {
      "children": [
        3,
        5,
        8,
        10,
        12,
        14
      ],
      "name": "RootNode"
    },
    {
      "children": [
        4
      ],
      "matrix": [
        92.57039472353533,
        -0.406666788441043,
        37.82270009996698,
        0.0,
        37.78345528217923,
        -3.6847481995075926,
        -92.51396185249982,
        0.0,
        1.769894953496077,
        99.93127026417405,
        -3.2573334372092337,
        0.0,
        0.0,
        0.0,
        0.0,
        1.0
      ],
      "name": "Astronaut"
    },
    {
      "mesh": 0,
      "name": "Astronaut_Outline.002_0"
    },
    {
      "children": [
        6,
        7
      ],
      "matrix": [
        92.57039472353533,
        -0.406666788441043,
        37.82270009996698,
        0.0,
        37.78345528217923,
        -3.6847481995075926,
        -92.51396185249982,
        0.0,
        1.769894953496077,
        99.93127026417405,
        -3.2573334372092337,
        0.0,
        0.0,
        0.0,
        0.0,
        1.0
      ],
      "name": "Astronaut.001"
    },
    {
      "mesh": 1,
      "name": "Astronaut.001_Astronaut.002_0"
    },
    {
      "mesh": 2,
      "name": "Astronaut.001_Outline.002_0"
    },
    {
      "children": [
        9
      ],
      "matrix": [
        92.57039472353533,
        -0.406666788441043,
        37.82270009996698,
        0.0,
        37.78345528217923,
        -3.6847481995075926,
        -92.51396185249982,
        0.0,
        1.769894953496077,
        99.93127026417405,
        -3.2573334372092337,
        0.0,
        0.0,
        0.0,
        0.0,
        1.0
      ],
      "name": "Astronaut.002"
    },
    {
      "mesh": 3,
      "name": "Astronaut.002_Astronaut.002_0"
    },
    {
      "children": [
        11
      ],
      "matrix": [
        92.57039472353533,
        -0.406666788441043,
        37.82270009996698,
        0.0,
        37.78345528217923,
        -3.6847481995075926,
        -92.51396185249982,
        0.0,
        1.769894953496077,
        99.93127026417405,
        -3.2573334372092337,
        0.0,
        0.0,
        0.0,
        0.0,
        1.0
      ],
      "name": "Astronaut.003"
    },
    {
      "mesh": 4,
      "name": "Astronaut.003_Astronaut_backpack_0"
    },
    {
      "children": [
        13
      ],
      "matrix": [
        92.57039472353533,
        -0.406666788441043,
        37.82270009996698,
        0.0,
        37.78345528217923,
        -3.6847481995075926,
        -92.51396185249982,
        0.0,
        1.769894953496077,
        99.93127026417405,
        -3.2573334372092337,
        0.0,
        0.0,
        0.0,
        0.0,
        1.0
      ],
      "name": "Astronaut.004"
    },
    {
      "mesh": 5,
      "name": "Astronaut.004_Outline.002_0"
    },
    {
      "children": [
        15
      ],
      "matrix": [
        99.18408966064453,
        0.0,
        0.0,
        0.0,
        0.0,
        22.615473341676484,
        -90.65060064183847,
        0.0,
        0.0,
        73.78674569413621,
        18.408285972731054,
        0.0,
        5.0567755699157715,
        264.7752990722656,
        -41.42130661010742,
        1.0
      ],
      "name": "beanie"
    },
    {
      "mesh": 6,
      "name": "beanie_beanie_0"
    }
  ],
  "samplers": [
    {
      "magFilter": 9729,
      "minFilter": 9987,
      "wrapS": 10497,
      "wrapT": 10497
    }
  ],
  "scene": 0,
  "scenes": [
    {
      "name": "Sketchfab_Scene",
      "nodes": [
        0
      ]
    }
  ],
  "textures": [
    {
      "sampler": 0,
      "source": 0
    },
    {
      "sampler": 0,
      "source": 1
    },
    {
      "sampler": 0,
      "source": 2
    }
  ]
}
