{
    "asset" : {
        "generator" : "Khronos glTF Blender I/O v3.2.40",
        "version" : "2.0"
    },
    "scene" : 0,
    "scenes" : [
        {
            "name" : "Scene",
            "nodes" : [
                0
            ]
        }
    ],
    "nodes" : [
        {
            "mesh" : 0,
            "name" : "Sphere",
            "translation" : [
                -0.1874847412109375,
                0.7404417991638184,
                -0.4881720542907715
            ]
        }
    ],
    "materials" : [
        {
            "doubleSided" : true,
            "name" : "Material.001",
            "pbrMetallicRoughness" : {
                "baseColorFactor" : [
                    0.8000000715255737,
                    0.0015396821545436978,
                    0,
                    1
                ],
                "metallicFactor" : 0,
                "roughnessFactor" : 0.5
            }
        },
        {
            "doubleSided" : true,
            "name" : "Material.002",
            "pbrMetallicRoughness" : {
                "baseColorTexture" : {
                    "index" : 0
                },
                "metallicFactor" : 0,
                "roughnessFactor" : 0.5
            }
        },
        {
            "doubleSided" : true,
            "name" : "Material.003",
            "pbrMetallicRoughness" : {
                "baseColorTexture" : {
                    "index" : 1
                },
                "metallicFactor" : 0,
                "roughnessFactor" : 0.5
            }
        }
    ],
    "meshes" : [
        {
            "name" : "Sphere",
            "primitives" : [
                {
                    "attributes" : {
                        "POSITION" : 0,
                        "NORMAL" : 1,
                        "TEXCOORD_0" : 2
                    },
                    "indices" : 3,
                    "material" : 0
                },
                {
                    "attributes" : {
                        "POSITION" : 4,
                        "NORMAL" : 5,
                        "TEXCOORD_0" : 6
                    },
                    "indices" : 7,
                    "material" : 1
                },
                {
                    "attributes" : {
                        "POSITION" : 8,
                        "NORMAL" : 9,
                        "TEXCOORD_0" : 10
                    },
                    "indices" : 11,
                    "material" : 2
                }
            ]
        }
    ],
    "textures" : [
        {
            "sampler" : 0,
            "source" : 0
        },
        {
            "sampler" : 0,
            "source" : 1
        }
    ],
    "images" : [
        {
            "mimeType" : "image/png",
            "name" : "Background_4",
            "uri" : "Background_4.png"
        },
        {
            "mimeType" : "image/png",
            "name" : "Background_5",
            "uri" : "Background_5.png"
        }
    ],
    "accessors" : [
        {
            "bufferView" : 0,
            "componentType" : 5126,
            "count" : 3954,
            "max" : [
                0.13533653318881989,
                1.4602257013320923,
                0.13533662259578705
            ],
            "min" : [
                -0.19411078095436096,
                0.9852702021598816,
                -0.1353364884853363
            ],
            "type" : "VEC3"
        },
        {
            "bufferView" : 1,
            "componentType" : 5126,
            "count" : 3954,
            "type" : "VEC3"
        },
        {
            "bufferView" : 2,
            "componentType" : 5126,
            "count" : 3954,
            "type" : "VEC2"
        },
        {
            "bufferView" : 3,
            "componentType" : 5123,
            "count" : 16308,
            "type" : "SCALAR"
        },
        {
            "bufferView" : 4,
            "componentType" : 5126,
            "count" : 2789,
            "max" : [
                0.9872310161590576,
                1.1245404481887817,
                0.9872307181358337
            ],
            "min" : [
                -0.9872304201126099,
                -0.9975767135620117,
                -0.9872304201126099
            ],
            "type" : "VEC3"
        },
        {
            "bufferView" : 5,
            "componentType" : 5126,
            "count" : 2789,
            "type" : "VEC3"
        },
        {
            "bufferView" : 6,
            "componentType" : 5126,
            "count" : 2789,
            "type" : "VEC2"
        },
        {
            "bufferView" : 7,
            "componentType" : 5123,
            "count" : 15552,
            "type" : "SCALAR"
        },
        {
            "bufferView" : 8,
            "componentType" : 5126,
            "count" : 2368,
            "max" : [
                0.043716832995414734,
                1.4690018892288208,
                0.06943042576313019
            ],
            "min" : [
                -0.24531278014183044,
                1.1243035793304443,
                -0.04656657576560974
            ],
            "type" : "VEC3"
        },
        {
            "bufferView" : 9,
            "componentType" : 5126,
            "count" : 2368,
            "type" : "VEC3"
        },
        {
            "bufferView" : 10,
            "componentType" : 5126,
            "count" : 2368,
            "type" : "VEC2"
        },
        {
            "bufferView" : 11,
            "componentType" : 5123,
            "count" : 12366,
            "type" : "SCALAR"
        }
    ],
    "bufferViews" : [
        {
            "buffer" : 0,
            "byteLength" : 47448,
            "byteOffset" : 0
        },
        {
            "buffer" : 0,
            "byteLength" : 47448,
            "byteOffset" : 47448
        },
        {
            "buffer" : 0,
            "byteLength" : 31632,
            "byteOffset" : 94896
        },
        {
            "buffer" : 0,
            "byteLength" : 32616,
            "byteOffset" : 126528
        },
        {
            "buffer" : 0,
            "byteLength" : 33468,
            "byteOffset" : 159144
        },
        {
            "buffer" : 0,
            "byteLength" : 33468,
            "byteOffset" : 192612
        },
        {
            "buffer" : 0,
            "byteLength" : 22312,
            "byteOffset" : 226080
        },
        {
            "buffer" : 0,
            "byteLength" : 31104,
            "byteOffset" : 248392
        },
        {
            "buffer" : 0,
            "byteLength" : 28416,
            "byteOffset" : 279496
        },
        {
            "buffer" : 0,
            "byteLength" : 28416,
            "byteOffset" : 307912
        },
        {
            "buffer" : 0,
            "byteLength" : 18944,
            "byteOffset" : 336328
        },
        {
            "buffer" : 0,
            "byteLength" : 24732,
            "byteOffset" : 355272
        }
    ],
    "samplers" : [
        {
            "magFilter" : 9729,
            "minFilter" : 9987
        }
    ],
    "buffers" : [
        {
            "byteLength" : 380004,
            "uri" : "untitled.bin"
        }
    ]
}
